<svg width="95" height="56" viewBox="0 0 95 56" fill="none" xmlns="http://www.w3.org/2000/svg">
<path fill-rule="evenodd" clip-rule="evenodd" d="M60.3532 5.37876C64.1253 0.844992 70.4435 -1.04407 76.1017 1.0339L94.3019 7.55119L88.3609 17.8466L61.6735 8.30681C61.2962 8.1179 58.9387 7.45673 57.8071 9.3458L52.998 17.6571L82.4198 28.1413L76.4788 38.4367L47.0566 27.9524L52.9973 17.6575L23.6698 7.17337C27.0647 1.22281 34.2316 -1.51635 40.7385 0.844989L56.5812 6.51219C56.5812 6.51219 59.2216 7.07892 60.3532 5.37876ZM41.1156 38.2481L11.7877 27.7637L17.7287 17.4683L47.0566 27.9527L41.1156 38.2481ZM32.5341 47.5987L5.94102 38.059L0 48.3544L18.2002 54.8717C23.9527 56.9496 30.1766 55.0606 33.9487 50.5268V50.6213C35.0803 48.9211 37.7207 49.4878 37.7207 49.4878L53.5634 55.155C60.0703 57.5164 67.2372 54.7772 70.6321 48.8266L41.3042 38.3423L36.4948 46.6542C35.2689 48.4488 32.817 47.6932 32.5341 47.5987Z" fill="#06BCC1"/>
</svg>
